{
  "source": "C:\\Users\\Peter\\Desktop\\stuff\\MIUN\\quantitative_research\\video_compression\\videos\\BVI-HD\\BVI-HD_CDVL_videos\\ORIG\\Boxing_1920x1080_30fps.mp4",
  "output": "C:\\Users\\Peter\\Desktop\\stuff\\MIUN\\quantitative_research\\video_compression\\compressed_videos\\BVI-HD\\av1\\4\\Boxing_1920x1080_30fps_av1.mkv",
  "codec": "av1",
  "ok": "Input #0, mov,mp4,m4a,3gp,3g2,mj2, from 'C:\\Users\\Peter\\Desktop\\stuff\\MIUN\\quantitative_research\\video_compression\\videos\\BVI-HD\\BVI-HD_CDVL_videos\\ORIG\\Boxing_1920x1080_30fps.mp4':\n  Metadata:\n    major_brand     : isom\n    minor_version   : 512\n    compatible_brands: isomiso2avc1mp41\n    encoder         : Lavf54.28.101\n  Duration: 00:00:05.00, start: 0.000000, bitrate: 238363 kb/s\n  Stream #0:0[0x1](und): Video: h264 (High 4:4:4 Predictive) (avc1 / 0x31637661), yuv420p(progressive), 1920x1080, 238359 kb/s, 30 fps, 30 tbr, 30 tbn (default)\n    Metadata:\n      handler_name    : VideoHandler\n      vendor_id       : [0][0][0][0]\n[out#0/matroska @ 000001f6d2d29b00] Codec AVOption b:a (set bitrate (in bits/s)) has not been used for any stream. The most likely reason is either wrong type (e.g. a video option with no video streams) or that it is a private option of some decoder which was not actually used for any stream.\nStream mapping:\n  Stream #0:0 -> #0:0 (h264 (native) -> av1 (libsvtav1))\nPress [q] to stop, [?] for help\nSvt[info]: -------------------------------------------\nSvt[info]: SVT [version]:\tSVT-AV1 Encoder Lib v3.1.0-19-g6ecfe8ec\nSvt[info]: SVT [build]  :\tGCC 15.2.0\t 64 bit\nSvt[info]: LIB Build date: Aug 17 2025 11:37:13\nSvt[info]: -------------------------------------------\nSvt[info]: Level of Parallelism: 5\nSvt[info]: Number of PPCS 93\nSvt[info]: [asm level on system : up to avx2]\nSvt[info]: [asm level selected : up to avx2]\nSvt[info]: -------------------------------------------\nSvt[info]: SVT [config]: main profile\ttier (auto)\tlevel (auto)\nSvt[info]: SVT [config]: width / height / fps numerator / fps denominator \t\t: 1920 / 1080 / 30 / 1\nSvt[info]: SVT [config]: bit-depth / color format \t\t\t\t\t: 8 / YUV420\nSvt[info]: SVT [config]: preset / tune / pred struct \t\t\t\t\t: 4 / PSNR / random access\nSvt[info]: SVT [config]: gop size / mini-gop size / key-frame type \t\t\t: 161 / 16 / key frame\nSvt[info]: SVT [config]: BRC mode / target bitrate (kbps)\t\t\t\t: VBR / 4000 \nSvt[info]: SVT [config]: AQ mode / Variance Boost \t\t\t\t\t: 2 / 0\nSvt[info]: SVT [config]: sharpness / luminance-based QP bias \t\t\t\t: 0 / 0\nSvt[info]: SVT [config]: QP scale compress strength \t\t\t\t\t: 0\nSvt[info]: -------------------------------------------\nOutput #0, matroska, to 'C:\\Users\\Peter\\Desktop\\stuff\\MIUN\\quantitative_research\\video_compression\\compressed_videos\\BVI-HD\\av1\\4\\Boxing_1920x1080_30fps_av1.mkv':\n  Metadata:\n    major_brand     : isom\n    minor_version   : 512\n    compatible_brands: isomiso2avc1mp41\n    encoder         : Lavf62.3.100\n  Stream #0:0(und): Video: av1 (AV01 / 0x31305641), yuv420p(tv, progressive), 1920x1080, q=2-31, 4000 kb/s, 30 fps, 1k tbn (default)\n    Metadata:\n      encoder         : Lavc62.11.100 libsvtav1\n      handler_name    : VideoHandler\n      vendor_id       : [0][0][0][0]\n    Side data:\n      cpb: bitrate max/min/avg: 0/0/4000000 buffer size: 4000000 vbv_delay: N/A\nframe=    0 fps=0.0 q=0.0 size=       0KiB time=N/A bitrate=N/A speed=N/A elapsed=0:00:01.03    \nframe=    0 fps=0.0 q=0.0 size=       0KiB time=N/A bitrate=N/A speed=N/A elapsed=0:00:01.56    \nframe=    0 fps=0.0 q=0.0 size=       0KiB time=N/A bitrate=N/A speed=N/A elapsed=0:00:02.09    \nframe=    0 fps=0.0 q=0.0 size=       0KiB time=N/A bitrate=N/A speed=N/A elapsed=0:00:02.62    \nframe=    1 fps=0.3 q=10.0 size=       1KiB time=00:00:00.00 bitrate=N/A speed=   0x elapsed=0:00:03.14    \nframe=    1 fps=0.3 q=10.0 size=       1KiB time=00:00:00.00 bitrate=N/A speed=   0x elapsed=0:00:03.65    \nframe=    1 fps=0.2 q=10.0 size=       1KiB time=00:00:00.00 bitrate=N/A speed=   0x elapsed=0:00:04.18    \nframe=    5 fps=1.1 q=31.0 size=       1KiB time=00:00:00.13 bitrate=  42.8kbits/s speed=0.0285x elapsed=0:00:04.68    \nframe=    8 fps=1.5 q=36.0 size=       1KiB time=00:00:00.23 bitrate=  24.4kbits/s speed=0.0448x elapsed=0:00:05.20    \nframe=   12 fps=2.1 q=34.0 size=       1KiB time=00:00:00.36 bitrate=  15.6kbits/s speed=0.064x elapsed=0:00:05.73    \nframe=   17 fps=2.7 q=16.0 size=       1KiB time=00:00:00.53 bitrate=  10.7kbits/s speed=0.0855x elapsed=0:00:06.23    \nframe=   19 fps=2.8 q=31.0 size=       1KiB time=00:00:00.60 bitrate=   9.5kbits/s speed=0.0888x elapsed=0:00:06.75    \nframe=   22 fps=3.0 q=28.0 size=       1KiB time=00:00:00.70 bitrate=   8.1kbits/s speed=0.0962x elapsed=0:00:07.27    \nframe=   24 fps=3.1 q=28.0 size=       1KiB time=00:00:00.76 bitrate=   7.4kbits/s speed=0.0985x elapsed=0:00:07.78    \nframe=   27 fps=3.2 q=31.0 size=       1KiB time=00:00:00.86 bitrate=   6.6kbits/s speed=0.104x elapsed=0:00:08.33    \nframe=   33 fps=3.7 q=15.0 size=       1KiB time=00:00:01.06 bitrate=   5.3kbits/s speed=0.12x elapsed=0:00:08.85    \nframe=   36 fps=3.8 q=30.0 size=       1KiB time=00:00:01.16 bitrate=   4.9kbits/s speed=0.124x elapsed=0:00:09.38    \nframe=   39 fps=3.9 q=29.0 size=       1KiB time=00:00:01.26 bitrate=   4.5kbits/s speed=0.128x elapsed=0:00:09.89    \nframe=   42 fps=4.0 q=27.0 size=       1KiB time=00:00:01.36 bitrate=   4.2kbits/s speed=0.131x elapsed=0:00:10.40    \nframe=   46 fps=4.2 q=29.0 size=       1KiB time=00:00:01.50 bitrate=   3.8kbits/s speed=0.137x elapsed=0:00:10.92    \nframe=   51 fps=4.5 q=32.0 size=       1KiB time=00:00:01.66 bitrate=   3.4kbits/s speed=0.146x elapsed=0:00:11.43    \nframe=   57 fps=4.8 q=18.0 size=       1KiB time=00:00:01.86 bitrate=   3.1kbits/s speed=0.156x elapsed=0:00:11.95    \nframe=   57 fps=4.6 q=18.0 size=       1KiB time=00:00:01.86 bitrate=   3.1kbits/s speed=0.15x elapsed=0:00:12.48    \nframe=   61 fps=4.7 q=27.0 size=       1KiB time=00:00:02.00 bitrate=   2.9kbits/s speed=0.154x elapsed=0:00:13.00    \nframe=   65 fps=4.8 q=8.0 size=       1KiB time=00:00:02.13 bitrate=   2.7kbits/s speed=0.158x elapsed=0:00:13.52    \nframe=   69 fps=4.9 q=29.0 size=       1KiB time=00:00:02.26 bitrate=   2.5kbits/s speed=0.161x elapsed=0:00:14.04    \nframe=   71 fps=4.9 q=29.0 size=       1KiB time=00:00:02.33 bitrate=   2.4kbits/s speed=0.16x elapsed=0:00:14.56    \nframe=   73 fps=4.8 q=20.0 size=       1KiB time=00:00:02.40 bitrate=   2.4kbits/s speed=0.159x elapsed=0:00:15.07    \nframe=   77 fps=4.9 q=28.0 size=       1KiB time=00:00:02.53 bitrate=   2.3kbits/s speed=0.162x elapsed=0:00:15.60    \nframe=   79 fps=4.9 q=30.0 size=       1KiB time=00:00:02.60 bitrate=   2.2kbits/s speed=0.161x elapsed=0:00:16.12    \nframe=   83 fps=5.0 q=31.0 size=       1KiB time=00:00:02.73 bitrate=   2.1kbits/s speed=0.164x elapsed=0:00:16.66    \nframe=   87 fps=5.1 q=28.0 size=       1KiB time=00:00:02.86 bitrate=   2.0kbits/s speed=0.167x elapsed=0:00:17.17    \nframe=   89 fps=5.0 q=17.0 size=       1KiB time=00:00:02.93 bitrate=   1.9kbits/s speed=0.166x elapsed=0:00:17.69    \nframe=   93 fps=5.1 q=27.0 size=       1KiB time=00:00:03.06 bitrate=   1.9kbits/s speed=0.168x elapsed=0:00:18.20    \nframe=   97 fps=5.2 q=7.0 size=       1KiB time=00:00:03.20 bitrate=   1.8kbits/s speed=0.171x elapsed=0:00:18.71    \nframe=  101 fps=5.3 q=27.0 size=       1KiB time=00:00:03.33 bitrate=   1.7kbits/s speed=0.173x elapsed=0:00:19.23    \nframe=  103 fps=5.2 q=28.0 size=       1KiB time=00:00:03.40 bitrate=   1.7kbits/s speed=0.172x elapsed=0:00:19.75    \nframe=  105 fps=5.2 q=15.0 size=       1KiB time=00:00:03.46 bitrate=   1.6kbits/s speed=0.171x elapsed=0:00:20.28    \nframe=  109 fps=5.2 q=26.0 size=       1KiB time=00:00:03.60 bitrate=   1.6kbits/s speed=0.173x elapsed=0:00:20.80    \nframe=  113 fps=5.3 q=4.0 size=       1KiB time=00:00:03.73 bitrate=   1.5kbits/s speed=0.175x elapsed=0:00:21.35    \nframe=  117 fps=5.4 q=28.0 size=       1KiB time=00:00:03.86 bitrate=   1.5kbits/s speed=0.177x elapsed=0:00:21.86    \nframe=  121 fps=5.4 q=16.0 size=       1KiB time=00:00:04.00 bitrate=   1.4kbits/s speed=0.179x elapsed=0:00:22.37    \nframe=  121 fps=5.3 q=16.0 size=       1KiB time=00:00:04.00 bitrate=   1.4kbits/s speed=0.175x elapsed=0:00:22.89    \nframe=  125 fps=5.3 q=29.0 size=       1KiB time=00:00:04.13 bitrate=   1.4kbits/s speed=0.176x elapsed=0:00:23.43    \nframe=  127 fps=5.3 q=31.0 size=       1KiB time=00:00:04.20 bitrate=   1.4kbits/s speed=0.175x elapsed=0:00:24.00    \nframe=  129 fps=5.2 q=7.0 size=       1KiB time=00:00:04.26 bitrate=   1.3kbits/s speed=0.173x elapsed=0:00:24.60    \nframe=  133 fps=5.3 q=32.0 size=       1KiB time=00:00:04.40 bitrate=   1.3kbits/s speed=0.175x elapsed=0:00:25.17    \nframe=  135 fps=5.2 q=31.0 size=       1KiB time=00:00:04.46 bitrate=   1.3kbits/s speed=0.173x elapsed=0:00:25.75    \nframe=  137 fps=5.2 q=27.0 size=       1KiB time=00:00:04.53 bitrate=   1.3kbits/s speed=0.172x elapsed=0:00:26.37    \nframe=  141 fps=5.2 q=33.0 size=       1KiB time=00:00:04.60 bitrate=   1.2kbits/s speed=0.171x elapsed=0:00:26.93    \nframe=  143 fps=5.2 q=32.0 size=       1KiB time=00:00:04.73 bitrate=   1.2kbits/s speed=0.172x elapsed=0:00:27.46    \n[out#0/matroska @ 000001f6d2d29b00] video:2222KiB audio:0KiB subtitle:0KiB other streams:0KiB global headers:0KiB muxing overhead: 0.064476%\nframe=  150 fps=5.4 q=35.0 Lsize=    2223KiB time=00:00:04.96 bitrate=3667.2kbits/s speed=0.18x elapsed=0:00:27.63    \n",
  "seconds": 28.2183997631073,
  "probe_out": {}
}